<?xml version="1.0" encoding="UTF-8"?>
<svg xmlns="http://www.w3.org/2000/svg" viewBox="0 0 900 520" width="900" height="520">
  <defs>
    <marker id="arrow-solid" markerWidth="10" markerHeight="10" refX="9" refY="3" orient="auto" markerUnits="strokeWidth">
      <path d="M0,0 L0,6 L9,3 z" fill="#555" />
    </marker>
    <marker id="arrow-dashed" markerWidth="10" markerHeight="10" refX="9" refY="3" orient="auto" markerUnits="strokeWidth">
      <path d="M0,0 L0,6 L9,3 z" fill="#e53935" />
    </marker>
    <marker id="arrow-loop" markerWidth="10" markerHeight="10" refX="9" refY="3" orient="auto" markerUnits="strokeWidth">
      <path d="M0,0 L0,6 L9,3 z" fill="#fb8c00" />
    </marker>
  </defs>

  <!-- Stage boxes (left column, y spaced out) -->
  <rect x="10" y="20" width="100" height="44" rx="8" fill="#fff9c4" stroke="#f57f17" stroke-width="2"/>
  <text x="60" y="38" text-anchor="middle" font-size="11" font-weight="bold" fill="#bf360c">1. Ideation</text>
  <text x="60" y="54" text-anchor="middle" font-size="14">💡</text>

  <rect x="10" y="80" width="100" height="44" rx="8" fill="#c8e6c9" stroke="#2e7d32" stroke-width="2"/>
  <text x="60" y="98" text-anchor="middle" font-size="11" font-weight="bold" fill="#1b5e20">2. Research</text>
  <text x="60" y="114" text-anchor="middle" font-size="14">📊</text>

  <rect x="10" y="140" width="100" height="44" rx="8" fill="#bbdefb" stroke="#1565c0" stroke-width="2"/>
  <text x="60" y="158" text-anchor="middle" font-size="11" font-weight="bold" fill="#0d47a1">3. Prototype</text>
  <text x="60" y="174" text-anchor="middle" font-size="14">🔧</text>

  <rect x="10" y="200" width="100" height="44" rx="8" fill="#d1c4e9" stroke="#4527a0" stroke-width="2"/>
  <text x="60" y="218" text-anchor="middle" font-size="11" font-weight="bold" fill="#311b92">4. Develop</text>
  <text x="60" y="234" text-anchor="middle" font-size="14">🛠️</text>

  <rect x="10" y="260" width="100" height="44" rx="8" fill="#ffccbc" stroke="#bf360c" stroke-width="2"/>
  <text x="60" y="278" text-anchor="middle" font-size="11" font-weight="bold" fill="#870000">5. Testing</text>
  <text x="60" y="294" text-anchor="middle" font-size="14">🧪</text>

  <rect x="10" y="320" width="100" height="44" rx="8" fill="#b2dfdb" stroke="#00695c" stroke-width="2"/>
  <text x="60" y="338" text-anchor="middle" font-size="11" font-weight="bold" fill="#004d40">6. Launch</text>
  <text x="60" y="354" text-anchor="middle" font-size="14">🚀</text>

  <rect x="10" y="380" width="100" height="44" rx="8" fill="#ffe0b2" stroke="#e65100" stroke-width="2"/>
  <text x="60" y="398" text-anchor="middle" font-size="11" font-weight="bold" fill="#bf360c">7. Growth</text>
  <text x="60" y="414" text-anchor="middle" font-size="14">📈</text>

  <rect x="10" y="440" width="100" height="44" rx="8" fill="#a5d6a7" stroke="#1b5e20" stroke-width="2"/>
  <text x="60" y="458" text-anchor="middle" font-size="11" font-weight="bold" fill="#1b5e20">8. Success</text>
  <text x="60" y="474" text-anchor="middle" font-size="14">🏆</text>

  <!-- Forward solid arrows (main path) -->
  <line x1="110" y1="42" x2="150" y2="102" stroke="#555" stroke-width="2" marker-end="url(#arrow-solid)"/>
  <line x1="150" y1="102" x2="110" y2="162" stroke="#555" stroke-width="2" marker-end="url(#arrow-solid)"/>
  <line x1="110" y1="162" x2="150" y2="222" stroke="#555" stroke-width="2" marker-end="url(#arrow-solid)"/>
  <line x1="150" y1="222" x2="110" y2="282" stroke="#555" stroke-width="2" marker-end="url(#arrow-solid)"/>
  <line x1="110" y1="282" x2="150" y2="342" stroke="#555" stroke-width="2" marker-end="url(#arrow-solid)"/>
  <line x1="150" y1="342" x2="110" y2="402" stroke="#555" stroke-width="2" marker-end="url(#arrow-solid)"/>
  <line x1="110" y1="402" x2="150" y2="462" stroke="#555" stroke-width="2" marker-end="url(#arrow-solid)"/>

  <!-- Backtrack dashed arrows (red) -->
  <!-- Research back to Ideation -->
  <path d="M 130,80 Q 220,60 130,64" fill="none" stroke="#e53935" stroke-width="2" stroke-dasharray="6,4" marker-end="url(#arrow-dashed)"/>
  <text x="220" y="55" font-size="10" fill="#e53935" font-style="italic">"Bad idea, restart"</text>

  <!-- Prototype back to Research -->
  <path d="M 130,140 Q 240,120 130,124" fill="none" stroke="#e53935" stroke-width="2" stroke-dasharray="6,4" marker-end="url(#arrow-dashed)"/>
  <text x="245" y="118" font-size="10" fill="#e53935" font-style="italic">"Need more data"</text>

  <!-- Testing back to Prototype -->
  <path d="M 130,260 Q 260,180 130,184" fill="none" stroke="#e53935" stroke-width="2" stroke-dasharray="6,4" marker-end="url(#arrow-dashed)"/>
  <text x="265" y="175" font-size="10" fill="#e53935" font-style="italic">"Doesn't work, rebuild"</text>

  <!-- Testing back to Develop -->
  <path d="M 130,260 Q 220,230 130,234" fill="none" stroke="#e53935" stroke-width="2" stroke-dasharray="6,4" marker-end="url(#arrow-dashed)"/>
  <text x="225" y="225" font-size="10" fill="#e53935" font-style="italic">"Bug found"</text>

  <!-- Launch back to Testing -->
  <path d="M 130,320 Q 200,290 130,294" fill="none" stroke="#e53935" stroke-width="2" stroke-dasharray="6,4" marker-end="url(#arrow-dashed)"/>
  <text x="205" y="285" font-size="10" fill="#e53935" font-style="italic">"Early users hate it"</text>

  <!-- Launch back to Research -->
  <path d="M 130,320 Q 280,100 130,104" fill="none" stroke="#e53935" stroke-width="2" stroke-dasharray="6,4" marker-end="url(#arrow-dashed)"/>
  <text x="285" y="95" font-size="10" fill="#e53935" font-style="italic">"Pivot!"</text>

  <!-- Growth back to Launch -->
  <path d="M 130,380 Q 200,350 130,354" fill="none" stroke="#e53935" stroke-width="2" stroke-dasharray="6,4" marker-end="url(#arrow-dashed)"/>
  <text x="205" y="345" font-size="10" fill="#e53935" font-style="italic">"Not ready to scale"</text>

  <!-- Growth back to Develop -->
  <path d="M 130,380 Q 300,220 130,224" fill="none" stroke="#e53935" stroke-width="2" stroke-dasharray="6,4" marker-end="url(#arrow-dashed)"/>
  <text x="305" y="215" font-size="10" fill="#e53935" font-style="italic">"Feature requests"</text>

  <!-- Success back to Growth -->
  <path d="M 130,440 Q 200,410 130,414" fill="none" stroke="#e53935" stroke-width="2" stroke-dasharray="6,4" marker-end="url(#arrow-dashed)"/>
  <text x="205" y="405" font-size="10" fill="#e53935" font-style="italic">"Market shifts"</text>

  <!-- Loop arrows (orange) for iteration cycles -->
  <!-- Develop-Testing loop -->
  <path d="M 60,244 Q 20,270 60,280" fill="none" stroke="#fb8c00" stroke-width="2" marker-end="url(#arrow-loop)"/>
  <text x="5" y="265" font-size="9" fill="#fb8c00">iterate</text>

  <!-- Prototype-Develop loop -->
  <path d="M 60,184 Q 20,210 60,220" fill="none" stroke="#fb8c00" stroke-width="2" marker-end="url(#arrow-loop)"/>
  <text x="5" y="205" font-size="9" fill="#fb8c00">iterate</text>

  <!-- Annotation box -->
  <rect x="320" y="380" width="560" height="110" rx="8" fill="#fafafa" stroke="#bbb" stroke-width="1"/>
  <text x="340" y="405" font-size="12" font-weight="bold" fill="#333">Why the mess?</text>
  <text x="340" y="425" font-size="11" fill="#555">• You discover the original idea won't work (back to ideation)</text>
  <text x="340" y="442" font-size="11" fill="#555">• Prototypes fail and you need more research</text>
  <text x="340" y="459" font-size="11" fill="#555">• Users give feedback that forces a pivot</text>
  <text x="340" y="476" font-size="11" fill="#555">• Growth reveals technical debt requiring redevelopment</text>

  <!-- Title -->
  <text x="600" y="30" text-anchor="middle" font-size="14" fill="#666" font-style="italic">Reality: lots of backtracking, loops, and pivots</text>
</svg>
