<svg xmlns="http://www.w3.org/2000/svg" viewBox="0 0 750 400" font-family="Arial, sans-serif" font-size="12">
  <defs>
    <marker id="arrowhead" markerWidth="10" markerHeight="7" refX="9" refY="3.5" orient="auto">
      <polygon points="0 0, 10 3.5, 0 7" fill="#333"/>
    </marker>
  </defs>
  
  <!-- Text Instruction Start -->
  <rect x="30" y="150" width="120" height="40" rx="20" fill="#c8e6c9" stroke="#2e7d32" stroke-width="2"/>
  <text x="90" y="165" text-anchor="middle" font-size="10" fill="#333">💬 Text</text>
  <text x="90" y="179" text-anchor="middle" font-size="10" fill="#333">Instruction</text>
  <line x1="150" y1="170" x2="190" y2="170" stroke="#333" stroke-width="1.5" marker-end="url(#arrowhead)"/>
  
  <!-- Camera Image -->
  <rect x="190" y="80" width="100" height="40" rx="6" fill="#e3f2fd" stroke="#1565c0" stroke-width="2"/>
  <text x="240" y="95" text-anchor="middle" font-size="10" fill="#333">📷 Camera</text>
  <text x="240" y="109" text-anchor="middle" font-size="10" fill="#333">Image</text>
  <line x1="240" y1="120" x2="240" y2="150" stroke="#333" stroke-width="1.5" marker-end="url(#arrowhead)"/>
  
  <!-- VLM Tool Call -->
  <rect x="190" y="150" width="100" height="50" rx="6" fill="#ffe0b2" stroke="#e65100" stroke-width="2"/>
  <text x="240" y="170" text-anchor="middle" font-size="10" fill="#333">👁️ VLM</text>
  <text x="240" y="184" text-anchor="middle" font-size="9" fill="#e65100">Tool Call</text>
  
  <!-- Lines from VLM to each IK -->
  <line x1="290" y1="175" x2="340" y2="80" stroke="#333" stroke-width="1.5" marker-end="url(#arrowhead)"/>
  <line x1="290" y1="175" x2="340" y2="160" stroke="#333" stroke-width="1.5" marker-end="url(#arrowhead)"/>
  <line x1="290" y1="175" x2="340" y2="240" stroke="#333" stroke-width="1.5" marker-end="url(#arrowhead)"/>
  <line x1="290" y1="175" x2="340" y2="320" stroke="#333" stroke-width="1.5" marker-end="url(#arrowhead)"/>
  
  <!-- IK Cup -->
  <rect x="340" y="60" width="100" height="40" rx="6" fill="#fff9c4" stroke="#f9a825" stroke-width="2"/>
  <text x="390" y="75" text-anchor="middle" font-size="10" fill="#333">🎯 IK</text>
  <text x="390" y="89" text-anchor="middle" font-size="9" fill="#f9a825">Cup</text>
  
  <!-- IK Fork -->
  <rect x="340" y="140" width="100" height="40" rx="6" fill="#fff9c4" stroke="#f9a825" stroke-width="2"/>
  <text x="390" y="155" text-anchor="middle" font-size="10" fill="#333">🎯 IK</text>
  <text x="390" y="169" text-anchor="middle" font-size="9" fill="#f9a825">Fork</text>
  
  <!-- IK Spoon -->
  <rect x="340" y="220" width="100" height="40" rx="6" fill="#fff9c4" stroke="#f9a825" stroke-width="2"/>
  <text x="390" y="235" text-anchor="middle" font-size="10" fill="#333">🎯 IK</text>
  <text x="390" y="249" text-anchor="middle" font-size="9" fill="#f9a825">Spoon</text>
  
  <!-- IK Cube -->
  <rect x="340" y="300" width="100" height="40" rx="6" fill="#fff9c4" stroke="#f9a825" stroke-width="2"/>
  <text x="390" y="315" text-anchor="middle" font-size="10" fill="#333">🎯 IK</text>
  <text x="390" y="329" text-anchor="middle" font-size="9" fill="#f9a825">Cube</text>
  
  <!-- Lines from each IK to Finished -->
  <line x1="440" y1="80" x2="500" y2="200" stroke="#333" stroke-width="1.5" marker-end="url(#arrowhead)"/>
  <line x1="440" y1="160" x2="500" y2="200" stroke="#333" stroke-width="1.5" marker-end="url(#arrowhead)"/>
  <line x1="440" y1="240" x2="500" y2="200" stroke="#333" stroke-width="1.5" marker-end="url(#arrowhead)"/>
  <line x1="440" y1="320" x2="500" y2="200" stroke="#333" stroke-width="1.5" marker-end="url(#arrowhead)"/>
  
  <!-- Finished -->
  <ellipse cx="550" cy="200" rx="55" ry="20" fill="#ffcdd2" stroke="#c62828" stroke-width="2"/>
  <text x="550" y="204" text-anchor="middle" font-size="12" fill="#333" font-weight="bold">Finished</text>
</svg>