<svg xmlns="http://www.w3.org/2000/svg" viewBox="0 0 520 530" font-family="Arial, sans-serif" font-size="13">
  <defs>
    <marker id="arrowhead" markerWidth="10" markerHeight="7" refX="9" refY="3.5" orient="auto">
      <polygon points="0 0, 10 3.5, 0 7" fill="#333"/>
    </marker>
  </defs>
  
  <!-- Start Node -->
  <ellipse cx="260" cy="22" rx="55" ry="18" fill="#c8e6c9" stroke="#2e7d32" stroke-width="2"/>
  <text x="260" y="27" text-anchor="middle" font-size="14" fill="#333" font-weight="bold">Start</text>
  <line x1="260" y1="40" x2="260" y2="54" stroke="#333" stroke-width="1.5" marker-end="url(#arrowhead)"/>
  
  <!-- Camera Captures Image -->
  <rect x="150" y="54" width="220" height="26" rx="5" fill="#e3f2fd" stroke="#1565c0" stroke-width="2"/>
  <text x="260" y="72" text-anchor="middle" font-size="12" fill="#333">Camera Captures Image</text>
  <line x1="260" y1="80" x2="260" y2="94" stroke="#333" stroke-width="1.5" marker-end="url(#arrowhead)"/>
  
  <!-- Object Detection Model -->
  <rect x="150" y="94" width="220" height="26" rx="5" fill="#e3f2fd" stroke="#1565c0" stroke-width="2"/>
  <text x="260" y="112" text-anchor="middle" font-size="12" fill="#333">Object Detection Model</text>
  <line x1="260" y1="120" x2="260" y2="134" stroke="#333" stroke-width="1.5" marker-end="url(#arrowhead)"/>
  
  <!-- Object Detected? Decision -->
  <polygon points="260,134 340,152 260,170 180,152" fill="#fff3e0" stroke="#e65100" stroke-width="2"/>
  <text x="260" y="156" text-anchor="middle" font-size="11" fill="#333">Detected?</text>
  
  <!-- Yes path -->
  <line x1="260" y1="170" x2="260" y2="186" stroke="#333" stroke-width="1.5" marker-end="url(#arrowhead)"/>
  <text x="270" y="182" font-size="10" fill="#2e7d32" font-weight="bold">Yes</text>
  
  <!-- Get 2D Bounding Box -->
  <rect x="150" y="186" width="220" height="26" rx="5" fill="#e3f2fd" stroke="#1565c0" stroke-width="2"/>
  <text x="260" y="204" text-anchor="middle" font-size="12" fill="#333">Get 2D Bounding Box</text>
  <line x1="260" y1="212" x2="260" y2="228" stroke="#333" stroke-width="1.5" marker-end="url(#arrowhead)"/>
  
  <!-- Project to 3D Coordinates -->
  <rect x="150" y="228" width="220" height="26" rx="5" fill="#e3f2fd" stroke="#1565c0" stroke-width="2"/>
  <text x="260" y="246" text-anchor="middle" font-size="12" fill="#333">Project to 3D Coords</text>
  <line x1="260" y1="254" x2="260" y2="270" stroke="#333" stroke-width="1.5" marker-end="url(#arrowhead)"/>
  
  <!-- Inverse Kinematics Calculation -->
  <rect x="150" y="270" width="220" height="26" rx="5" fill="#e3f2fd" stroke="#1565c0" stroke-width="2"/>
  <text x="260" y="288" text-anchor="middle" font-size="12" fill="#333">IK Calculation</text>
  <line x1="260" y1="296" x2="260" y2="312" stroke="#333" stroke-width="1.5" marker-end="url(#arrowhead)"/>
  
  <!-- Calculate Joint Angles -->
  <rect x="150" y="312" width="220" height="26" rx="5" fill="#e3f2fd" stroke="#1565c0" stroke-width="2"/>
  <text x="260" y="330" text-anchor="middle" font-size="12" fill="#333">Calculate Joint Angles</text>
  <line x1="260" y1="338" x2="260" y2="354" stroke="#333" stroke-width="1.5" marker-end="url(#arrowhead)"/>
  
  <!-- Send Commands to Robot -->
  <rect x="150" y="354" width="220" height="26" rx="5" fill="#e3f2fd" stroke="#1565c0" stroke-width="2"/>
  <text x="260" y="372" text-anchor="middle" font-size="12" fill="#333">Send Robot Commands</text>
  <line x1="260" y1="380" x2="260" y2="396" stroke="#333" stroke-width="1.5" marker-end="url(#arrowhead)"/>
  
  <!-- Robot Moves to Pick Object -->
  <rect x="150" y="396" width="220" height="26" rx="5" fill="#e3f2fd" stroke="#1565c0" stroke-width="2"/>
  <text x="260" y="414" text-anchor="middle" font-size="12" fill="#333">Robot Moves to Pick</text>
  <line x1="260" y1="422" x2="260" y2="436" stroke="#333" stroke-width="1.5" marker-end="url(#arrowhead)"/>
  
  <!-- Pick Successful? Decision -->
  <polygon points="260,436 330,452 260,468 190,452" fill="#fff3e0" stroke="#e65100" stroke-width="2"/>
  <text x="260" y="456" text-anchor="middle" font-size="11" fill="#333">Pick OK?</text>
  
  <!-- Yes path to Place -->
  <line x1="330" y1="452" x2="375" y2="452" stroke="#333" stroke-width="1.5" marker-end="url(#arrowhead)"/>
  <text x="340" y="446" font-size="10" fill="#2e7d32" font-weight="bold">Yes</text>
  
  <!-- Place at Target Location -->
  <rect x="375" y="438" width="100" height="26" rx="5" fill="#e3f2fd" stroke="#1565c0" stroke-width="2"/>
  <text x="425" y="456" text-anchor="middle" font-size="12" fill="#333">Place Object</text>
  <line x1="425" y1="464" x2="425" y2="478" stroke="#333" stroke-width="1.5" marker-end="url(#arrowhead)"/>
  
  <!-- Finished -->
  <ellipse cx="425" cy="496" rx="55" ry="18" fill="#ffcdd2" stroke="#c62828" stroke-width="2"/>
  <text x="425" y="501" text-anchor="middle" font-size="14" fill="#333" font-weight="bold">Finished</text>
  
  <!-- No path from Object Detected - loop back -->
  <path d="M 180 152 L 100 152 L 100 67 L 150 67" stroke="#333" stroke-width="1.5" fill="none" marker-end="url(#arrowhead)"/>
  <text x="88" y="110" font-size="10" fill="#c62828" font-weight="bold">No</text>
  
  <!-- No path from Pick Successful - loop back -->
  <path d="M 190 452 L 70 452 L 70 67 L 150 67" stroke="#333" stroke-width="1.5" fill="none" marker-end="url(#arrowhead)"/>
  <text x="58" y="265" font-size="10" fill="#c62828" font-weight="bold">No</text>
</svg>